<svg width="500" height="500" viewBox="0 0 500 500" fill="none" xmlns="http://www.w3.org/2000/svg">
  <defs>
    <linearGradient id="brainGradient" x1="0%" y1="0%" x2="100%" y2="100%">
      <stop offset="0%" stop-color="#6366F1" />
      <stop offset="100%" stop-color="#8B5CF6" />
    </linearGradient>
  </defs>
  
  <!-- 뇌 실루엣 -->
  <path d="M250 450C388.071 450 450 350 450 250C450 150 388.071 50 250 50C111.929 50 50 150 50 250C50 350 111.929 450 250 450Z" fill="url(#brainGradient)" opacity="0.2"/>
  
  <!-- 왼쪽 반구 -->
  <path d="M240 100C200 100 130 150 130 250C130 350 200 400 240 400" stroke="url(#brainGradient)" stroke-width="6" stroke-linecap="round"/>
  
  <!-- 오른쪽 반구 -->
  <path d="M260 100C300 100 370 150 370 250C370 350 300 400 260 400" stroke="url(#brainGradient)" stroke-width="6" stroke-linecap="round"/>
  
  <!-- 뇌 연결 부분 -->
  <path d="M240 100C245 100 255 100 260 100" stroke="url(#brainGradient)" stroke-width="6" stroke-linecap="round"/>
  <path d="M240 400C245 400 255 400 260 400" stroke="url(#brainGradient)" stroke-width="6" stroke-linecap="round"/>
  
  <!-- 뇌 주름 - 왼쪽 -->
  <path d="M240 150C220 150 160 180 160 250C160 320 220 350 240 350" stroke="url(#brainGradient)" stroke-width="4" stroke-linecap="round"/>
  <path d="M240 200C230 200 190 220 190 250C190 280 230 300 240 300" stroke="url(#brainGradient)" stroke-width="4" stroke-linecap="round"/>
  
  <!-- 뇌 주름 - 오른쪽 -->
  <path d="M260 150C280 150 340 180 340 250C340 320 280 350 260 350" stroke="url(#brainGradient)" stroke-width="4" stroke-linecap="round"/>
  <path d="M260 200C270 200 310 220 310 250C310 280 270 300 260 300" stroke="url(#brainGradient)" stroke-width="4" stroke-linecap="round"/>
  
  <!-- 신경망 표현 -->
  <circle cx="180" cy="180" r="3" fill="#6366F1"/>
  <circle cx="200" cy="220" r="3" fill="#6366F1"/>
  <circle cx="220" cy="270" r="3" fill="#6366F1"/>
  <circle cx="190" cy="320" r="3" fill="#6366F1"/>
  
  <circle cx="320" cy="180" r="3" fill="#8B5CF6"/>
  <circle cx="300" cy="220" r="3" fill="#8B5CF6"/>
  <circle cx="280" cy="270" r="3" fill="#8B5CF6"/>
  <circle cx="310" cy="320" r="3" fill="#8B5CF6"/>
  
  <line x1="180" y1="180" x2="200" y2="220" stroke="#6366F1" stroke-width="1"/>
  <line x1="200" y1="220" x2="220" y2="270" stroke="#6366F1" stroke-width="1"/>
  <line x1="220" y1="270" x2="190" y2="320" stroke="#6366F1" stroke-width="1"/>
  
  <line x1="320" y1="180" x2="300" y2="220" stroke="#8B5CF6" stroke-width="1"/>
  <line x1="300" y1="220" x2="280" y2="270" stroke="#8B5CF6" stroke-width="1"/>
  <line x1="280" y1="270" x2="310" y2="320" stroke="#8B5CF6" stroke-width="1"/>
  
  <line x1="200" y1="220" x2="300" y2="220" stroke="url(#brainGradient)" stroke-width="1" opacity="0.5"/>
  <line x1="220" y1="270" x2="280" y2="270" stroke="url(#brainGradient)" stroke-width="1" opacity="0.5"/>
  
  <!-- 뉴런 연결 패턴 -->
  <circle cx="210" cy="150" r="2" fill="#6366F1"/>
  <circle cx="230" cy="170" r="2" fill="#6366F1"/>
  <circle cx="200" cy="190" r="2" fill="#6366F1"/>
  <line x1="210" y1="150" x2="230" y2="170" stroke="#6366F1" stroke-width="0.8"/>
  <line x1="230" y1="170" x2="200" y2="190" stroke="#6366F1" stroke-width="0.8"/>
  
  <circle cx="290" cy="150" r="2" fill="#8B5CF6"/>
  <circle cx="270" cy="170" r="2" fill="#8B5CF6"/>
  <circle cx="300" cy="190" r="2" fill="#8B5CF6"/>
  <line x1="290" y1="150" x2="270" y2="170" stroke="#8B5CF6" stroke-width="0.8"/>
  <line x1="270" y1="170" x2="300" y2="190" stroke="#8B5CF6" stroke-width="0.8"/>
  
  <!-- H33 통합 요소 -->
  <path d="M230 230H270M250 210V250" stroke="url(#brainGradient)" stroke-width="4" stroke-linecap="round"/>
  <path d="M220 270C225 280 235 280 240 275" stroke="url(#brainGradient)" stroke-width="3" stroke-linecap="round"/>
  <path d="M280 270C275 280 265 280 260 275" stroke="url(#brainGradient)" stroke-width="3" stroke-linecap="round"/>
</svg> 