<?xml version="1.0" encoding="UTF-8"?>
<svg width="800" height="600" viewBox="0 0 800 600" xmlns="http://www.w3.org/2000/svg">
  <!-- 배경 -->
  <rect width="800" height="600" fill="#F8FAFC" rx="20" ry="20" />
  
  <!-- 앱 화면 프레임 -->
  <rect x="50" y="50" width="700" height="500" rx="15" ry="15" fill="white" stroke="#E2E8F0" stroke-width="2" />
  
  <!-- 앱 헤더 -->
  <rect x="50" y="50" width="700" height="60" rx="15" ry="15" fill="#4F46E5" />
  <text x="100" y="85" font-family="Arial, sans-serif" font-weight="bold" font-size="18" fill="white">habitus33</text>
  
  <!-- 이미지 내 로고 -->
  <circle cx="75" cy="80" r="15" fill="white" />
  <text x="75" y="86" font-family="Arial, sans-serif" font-weight="bold" font-size="14" text-anchor="middle" fill="#4F46E5">33</text>
  
  <!-- 사이드바 -->
  <rect x="50" y="110" width="150" height="440" fill="#F1F5F9" />
  
  <!-- 메뉴 아이템들 -->
  <rect x="70" y="150" width="110" height="40" rx="8" ry="8" fill="#EDE9FE" />
  <text x="95" y="175" font-family="Arial, sans-serif" font-size="14" fill="#4F46E5">TS 모드</text>
  
  <rect x="70" y="200" width="110" height="40" rx="8" ry="8" fill="white" stroke="#E2E8F0" stroke-width="1" />
  <text x="95" y="225" font-family="Arial, sans-serif" font-size="14" fill="#64748B">Zengo 모드</text>
  
  <rect x="70" y="250" width="110" height="40" rx="8" ry="8" fill="white" stroke="#E2E8F0" stroke-width="1" />
  <text x="95" y="275" font-family="Arial, sans-serif" font-size="14" fill="#64748B">책 목록</text>
  
  <rect x="70" y="300" width="110" height="40" rx="8" ry="8" fill="white" stroke="#E2E8F0" stroke-width="1" />
  <text x="95" y="325" font-family="Arial, sans-serif" font-size="14" fill="#64748B">분석</text>
  
  <!-- 메인 콘텐츠 영역 - TS 모드 화면 -->
  <rect x="220" y="130" width="510" height="400" rx="8" ry="8" fill="white" stroke="#E2E8F0" stroke-width="1" />
  
  <!-- 책 미리보기 -->
  <rect x="250" y="170" width="450" height="200" rx="8" ry="8" fill="#F8FAFC" stroke="#E2E8F0" stroke-width="1" />
  
  <!-- 텍스트 라인들 -->
  <rect x="270" y="190" width="410" height="8" rx="4" ry="4" fill="#CBD5E1" />
  <rect x="270" y="210" width="380" height="8" rx="4" ry="4" fill="#CBD5E1" />
  <rect x="270" y="230" width="400" height="8" rx="4" ry="4" fill="#CBD5E1" />
  <rect x="270" y="250" width="350" height="8" rx="4" ry="4" fill="#CBD5E1" />
  <rect x="270" y="270" width="410" height="8" rx="4" ry="4" fill="#CBD5E1" />
  <rect x="270" y="290" width="390" height="8" rx="4" ry="4" fill="#CBD5E1" />
  <rect x="270" y="310" width="370" height="8" rx="4" ry="4" fill="#CBD5E1" />
  <rect x="270" y="330" width="410" height="8" rx="4" ry="4" fill="#CBD5E1" />
  
  <!-- 타이머 -->
  <circle cx="475" cy="430" r="50" fill="#4F46E5" />
  <circle cx="475" cy="430" r="44" fill="white" />
  <text x="475" y="435" font-family="Arial, sans-serif" font-weight="bold" font-size="20" text-anchor="middle" fill="#4F46E5">8:32</text>
  
  <!-- 속도 표시 -->
  <rect x="280" y="400" width="100" height="60" rx="8" ry="8" fill="#F1F5F9" />
  <text x="330" y="430" font-family="Arial, sans-serif" font-weight="bold" font-size="16" text-anchor="middle" fill="#4F46E5">312</text>
  <text x="330" y="450" font-family="Arial, sans-serif" font-size="10" text-anchor="middle" fill="#64748B">단어/분</text>
  
  <!-- 진행률 -->
  <rect x="570" y="400" width="100" height="60" rx="8" ry="8" fill="#F1F5F9" />
  <text x="620" y="430" font-family="Arial, sans-serif" font-weight="bold" font-size="16" text-anchor="middle" fill="#4F46E5">68%</text>
  <text x="620" y="450" font-family="Arial, sans-serif" font-size="10" text-anchor="middle" fill="#64748B">진행률</text>
  
  <!-- 데코레이션 -->
  <circle cx="750" cy="100" r="30" fill="url(#grad1)" opacity="0.3" />
  <circle cx="700" cy="520" r="40" fill="url(#grad2)" opacity="0.2" />
  <circle cx="150" cy="500" r="20" fill="url(#grad1)" opacity="0.3" />
  
  <defs>
    <linearGradient id="grad1" x1="0%" y1="0%" x2="100%" y2="100%">
      <stop offset="0%" stop-color="#4F46E5" />
      <stop offset="100%" stop-color="#3B82F6" />
    </linearGradient>
    <linearGradient id="grad2" x1="0%" y1="0%" x2="100%" y2="100%">
      <stop offset="0%" stop-color="#8B5CF6" />
      <stop offset="100%" stop-color="#3B82F6" />
    </linearGradient>
  </defs>
</svg> 