<?xml version="1.0" encoding="UTF-8"?>
<svg width="120" height="120" viewBox="0 0 120 120" xmlns="http://www.w3.org/2000/svg">
  <!-- 배경 그라데이션 원 -->
  <defs>
    <linearGradient id="logoGradient" x1="0%" y1="0%" x2="100%" y2="100%">
      <stop offset="0%" stop-color="#4F46E5" />
      <stop offset="100%" stop-color="#3B82F6" />
    </linearGradient>
  </defs>
  
  <!-- 메인 원형 배경 -->
  <circle cx="60" cy="60" r="58" fill="white" stroke="url(#logoGradient)" stroke-width="4" />
  
  <!-- "33" 숫자 -->
  <g transform="translate(30, 34)">
    <!-- 첫 번째 3 -->
    <path d="M15 0C18.866 0 22 3.134 22 7C22 9.509 20.509 11.683 18.35 12.696C20.509 13.709 22 15.883 22 18.392C22 22.258 18.866 25.392 15 25.392C11.134 25.392 8 22.258 8 18.392H12C12 20.049 13.343 21.392 15 21.392C16.657 21.392 18 20.049 18 18.392C18 16.735 16.657 15.392 15 15.392H13V11.392H15C16.657 11.392 18 10.049 18 8.392C18 6.735 16.657 5.392 15 5.392C13.343 5.392 12 6.735 12 8.392H8C8 4.526 11.134 1.392 15 1.392" 
      fill="url(#logoGradient)" />
    
    <!-- 두 번째 3 -->
    <path d="M37 0C40.866 0 44 3.134 44 7C44 9.509 42.509 11.683 40.35 12.696C42.509 13.709 44 15.883 44 18.392C44 22.258 40.866 25.392 37 25.392C33.134 25.392 30 22.258 30 18.392H34C34 20.049 35.343 21.392 37 21.392C38.657 21.392 40 20.049 40 18.392C40 16.735 38.657 15.392 37 15.392H35V11.392H37C38.657 11.392 40 10.049 40 8.392C40 6.735 38.657 5.392 37 5.392C35.343 5.392 34 6.735 34 8.392H30C30 4.526 33.134 1.392 37 1.392" 
      fill="url(#logoGradient)" />
  </g>
  
  <!-- "습관" 텍스트 -->
  <text x="60" y="80" font-family="Arial, sans-serif" font-weight="bold" font-size="14" text-anchor="middle" fill="#4F46E5">습관</text>
  
  <!-- 원형 선 장식 -->
  <path d="M20,60 a40,40 0 1,0 80,0 a40,40 0 1,0 -80,0" fill="none" stroke="url(#logoGradient)" stroke-width="1" stroke-dasharray="3,3" />
</svg> 