<svg viewBox="0 0 64 64" xmlns="http://www.w3.org/2000/svg"><g fill="#c1875d"><ellipse cx="51.1" cy="40.1" rx="4.8" ry="6.2"/><ellipse cx="27.8" cy="43.8" rx="4.8" ry="6.2"/><path d="m49.3 33.7v23.2c0 2.8 1.3 3.1 2.9 3.1s2.9-.2 2.9-3.1v-23.2z"/></g><path d="m55.9 62h-7.3l.7-5.1s.8-1 2.9-1 2.9 1 2.9 1z" fill="#89664c"/><path d="m24.9 33.7v23.2c0 2.8 1.3 3.1 2.9 3.1s2.9-.2 2.9-3.1v-23.2z" fill="#c1875d"/><path d="m31.5 62h-7.3l.7-5.1s.8-1 2.9-1 2.9 1 2.9 1z" fill="#89664c"/><path d="m53 33.7v23.2c0 2.8 1.3 3.1 2.9 3.1s2.9-.2 2.9-3.1v-23.2z" fill="#e0ac7e"/><path d="m59.6 62h-7.3l.7-5.1s.8-1 2.9-1c2.2 0 2.9 1 2.9 1z" fill="#c1875d"/><g fill="#e0ac7e"><path d="m60.4 41.6c.2-4.8-3.4-9.5-3.4-9.6l.7-.5c.2.2 3.8 5 3.6 10.1z"/><path d="m60.8 38.9c-.7 1.2-1.1 2.3-1.2 3.2.1.8.6 1.7 1.2 2.6.7-1.2 1.1-2.3 1.2-3.2-.1-.8-.6-1.7-1.2-2.6m-1.9-3c.5 5.8-12 7.9-21.5 7.9-12.3 0-20.8-20.5-18.3-17 3.4 4.7 5.8-2.3 8.5-3.2 5.9-2 10.9.1 17.1.7 7.8.7 14.2 5.2 14.2 11.6"/><path d="m49 25.5c-4-12-16-12-22 0z"/><path d="m28.6 33.7v23.2c0 2.8 1.3 3.1 2.9 3.1s2.9-.2 2.9-3.1v-23.2z"/></g><path d="m35.1 62h-7.3l.7-5.1s.8-1 2.9-1c2.2 0 2.9 1 2.9 1z" fill="#c1875d"/><path d="m7.5 13.9c4.9 2.1 6.8.1 6.8.1-9.3 10.8-4.2 42.4 13.9 26.1 21.6-19.4 2.5-8.1-.6-8.1s-11.4-.8-5.6-15.5c5.7-14.7-8-10.2-14.4-9.9-3.4.2-3.4 2.3-5 3.2-.9.6-.5 1.2.1 1.3v.4c-1.1.6-.4 2.4.8 2.1 2.1-.6 3.2 0 4 .3" fill="#e0ac7e"/><path d="m14.3 14c-9.6 10-4.8 41 12.3 27.4-13.5 5.8-15.4-23.3-12.3-27.4" fill="#ffe2b3"/><g fill="#e0ac7e"><ellipse cx="31.5" cy="44.7" rx="4.8" ry="6.2"/><ellipse cx="54.1" cy="39.3" rx="4.8" ry="6.2"/><path d="m22.9 8.5c-1.4-2.9-6.5-6.7-10.4-6.5 0 0 1.4.6 1.4 1.7 0 0-1.8 0-2.3.5 1.4.4 1.6 1 1.6 1s-1.1-.3-2 .5c1.4 0 1.4.3 3.2 1.4 1.7 1.1 8.5 1.4 8.5 1.4"/></g><path d="m4.7 8.7c.1.1.5 0 .9-.3s.7-.6.6-.7-.5 0-.9.3c-.4.2-.7.6-.6.7" fill="#89664c"/><ellipse cx="14.8" cy="9.2" fill="#c1875d" rx="2.1" ry="1.5"/><ellipse cx="14.8" cy="8.9" fill="#3e4347" rx=".9" ry=".7"/><path d="m18.6 7.8c.3-.4 2.8-1 4.1-1.1 1.4 0 .2 3-2.1 3.4s-2.3-1.8-2-2.3" fill="#c1875d"/><path d="m19 8.5c.2-.4 2.2-.9 3.2-.9s.1 2.5-1.6 2.9c-1.7.3-1.9-1.6-1.6-2" fill="#e0ac7e"/><path d="m2.7 11.2c2.6 0 6.5 1.3 8.5.7-2.5 1-5.9-.2-8.5-.2z" fill="#89664c"/></svg>