<svg viewBox="0 0 438.51 438.51" xmlns="http://www.w3.org/2000/svg">
  <defs>
    <linearGradient id="cool-gradient" x1="0%" y1="0%" x2="100%" y2="100%">
      <stop offset="0%" style="stop-color:#8A2BE2; stop-opacity:1" />
      <stop offset="100%" style="stop-color:#4B0082; stop-opacity:1" />
    </linearGradient>
  </defs>
  <path fill="url(#cool-gradient)" d="M404.675,401.221c-32.865-4.561-61.787-18.529-85.963-41.517c-22.487-21.381-32.882-44.058-32.877-44.05c-6.085-8.601-9.28-18.649-9.28-29.117c0-27.769,22.592-50.36,50.36-50.36s50.36,22.592,50.36,50.36c4.893,56.82,21.476,86.556,34.525,101.497l14.089,16.131L404.675,401.221z M41.683,250.309c-2.811-33.375-13.387-57.967-21.765-72.721L9.038,158.426l20.64,7.719c16.222,6.067,39.368,18.273,57.51,41.97l4.523,5.908l-5.564,4.938c-7.939,7.047-14.865,14.334-20.585,21.661c-3.468,4.455-6.508,8.868-9.03,13.107l-12.754,21.438L41.683,250.309z M157.405,395.057c-25.568,0-45.287-2.583-58.608-7.678c-16.901-6.463-56.212-27.649-56.212-84.652c0-31.118,15.785-60.251,46.915-86.592c25.202-21.324,55.36-36.382,76.223-45.259l21.202-9.021l-11.049,20.219c-6.925,12.672-10.036,23.812-13.045,34.585c-3.875,13.861-7.536,26.952-19.235,40.269c-2.165,2.474-7.583,7.066-15.622,13.671c-2.829,2.331-4.879,4.021-5.516,4.649c-5.191,5.168-8.063,12.069-8.063,19.409c0,15.103,12.292,27.39,27.4,27.39c7.154,0,15.596-2.547,25.808-7.788c4.588-2.352,20.646-10.924,34.771-22.541c10.985-9.021,23.225-24.467,23.225-24.467c32.957-41.241,28.779-93.219,25.423-134.983l-0.235-3.052c-2.824-43.538,26.532-82.988,68.28-91.835c5.476-1.158,10.955-1.744,16.289-1.744c11.87,0,23.319,2.824,34.03,8.392c4.301,2.238,7.066,6.222,7.591,10.934c0.58,5.142-1.568,10.313-5.748,13.822c-21.145,17.786-28.608,36.861-23.482,60.024c4.475,20.23,18.125,40.526,31.327,60.153c14.786,21.996,28.713,42.715,29.672,62.243c0.024,0.466,0.136,4.229,0.136,4.229c0.753,22.979-3.766,43.157-13.433,59.954l-11.022,19.15l-3.793-21.768c-1.437-8.245-2.557-16.96-3.329-25.905l-0.03-0.638c-0.172-27.598-22.764-50.05-50.36-50.05c-27.769,0-50.36,22.592-50.36,50.36c0,10.245,3.066,20.106,8.866,28.518l0.372,0.539l0.279,0.592c1.735,3.68,11.419,23.035,31.75,42.667l9.556,9.228l-12.626,4.13c-14.82,4.848-31.889,9.046-50.734,12.477C254.521,386.42,204.74,395.057,157.405,395.057z"/>
  <circle fill="url(#cool-gradient)" cx="319.991" cy="71.816" r="8"/>
</svg>